<?xml version="1.0" encoding="utf-8"?><svg xmlns="http://www.w3.org/2000/svg" xmlns:xlink="http://www.w3.org/1999/xlink">

  <symbol viewBox="0 0 24 24" fill="currentColor" id="facebook" xmlns="http://www.w3.org/2000/svg">
    <path fill-rule="evenodd" d="M14 13.5h2.5l1-4H14v-2c0-1.03 0-2 2-2h1.5V2.14c-.326-.043-1.557-.14-2.857-.14C11.928 2 10 3.657 10 6.7v2.8H7v4h3V22h4v-8.5z"/>
  </symbol>

  <symbol viewBox="0 0 24 24" fill="currentColor" id="search" xmlns="http://www.w3.org/2000/svg">
    <path fill-rule="evenodd" d="M19.023,16.977c-0.513-0.488-1.004-0.997-1.367-1.384c-0.372-0.378-0.596-0.653-0.596-0.653l-2.8-1.337 C15.34,12.37,16,10.763,16,9c0-3.859-3.14-7-7-7S2,5.141,2,9s3.14,7,7,7c1.763,0,3.37-0.66,4.603-1.739l1.337,2.8 c0,0,0.275,0.224,0.653,0.596c0.387,0.363,0.896,0.854,1.384,1.367c0.494,0.506,0.988,1.012,1.358,1.392 c0.362,0.388,0.604,0.646,0.604,0.646l2.121-2.121c0,0-0.258-0.242-0.646-0.604C20.035,17.965,19.529,17.471,19.023,16.977z M9,14 c-2.757,0-5-2.243-5-5s2.243-5,5-5s5,2.243,5,5S11.757,14,9,14z"/>
  </symbol>

  <symbol viewBox="0 0 24 24" fill="currentColor" id="chevron-down" xmlns="http://www.w3.org/2000/svg">
    <path fill-rule="evenodd" d="M12 13.172l4.95-4.95 1.414 1.414L12 16 5.636 9.636 7.05 8.222z"/>
  </symbol>
  
  <symbol viewBox="0 0 24 24" fill="currentColor" id="chevron-left" xmlns="http://www.w3.org/2000/svg">
    <path fill-rule="evenodd" d="M10.828 12l4.95 4.95-1.414 1.414L8 12l6.364-6.364 1.414 1.414z"/>
  </symbol>
  
  <symbol viewBox="0 0 24 24" fill="currentColor" id="chevron-right" xmlns="http://www.w3.org/2000/svg">
    <path fill-rule="evenodd" d="M13.172 12l-4.95-4.95 1.414-1.414L16 12l-6.364 6.364-1.414-1.414z"/>
  </symbol>
  
  <symbol viewBox="0 0 24 24" fill="currentColor" id="arrow-up" xmlns="http://www.w3.org/2000/svg">
    <path fill-rule="evenodd" d="M13 7.828V20h-2V7.828l-5.364 5.364-1.414-1.414L12 4l7.778 7.778-1.414 1.414L13 7.828z"/>
  </symbol>
  
  <symbol viewBox="0 0 24 24" fill="currentColor" id="download" xmlns="http://www.w3.org/2000/svg">
    <path fill-rule="evenodd" d="M13 10h5l-6 6-6-6h5V3h2v7zm-9 9h16v-7h2v8a1 1 0 0 1-1 1H3a1 1 0 0 1-1-1v-8h2v7z"/>
  </symbol>
 
  <symbol viewBox="0 0 24 24" fill="currentColor" id="preview" xmlns="http://www.w3.org/2000/svg">
    <path fill-rule="evenodd" d="M4 16h16V5H4v11zm9 2v2h4v2H7v-2h4v-2H2.992A.998.998 0 0 1 2 16.993V4.007C2 3.451 2.455 3 2.992 3h18.016c.548 0 .992.449.992 1.007v12.986c0 .556-.455 1.007-.992 1.007H13z"/>
  </symbol>
 
  <symbol viewBox="0 0 24 24" fill="currentColor" id="cart" xmlns="http://www.w3.org/2000/svg">
    <path fill-rule="evenodd" d="M4 16V4H2V2h3a1 1 0 0 1 1 1v12h12.438l2-8H8V5h13.72a1 1 0 0 1 .97 1.243l-2.5 10a1 1 0 0 1-.97.757H5a1 1 0 0 1-1-1zm2 7a2 2 0 1 1 0-4 2 2 0 0 1 0 4zm12 0a2 2 0 1 1 0-4 2 2 0 0 1 0 4z"/>
  </symbol>

  <symbol viewBox="0 0 24 24" fill="currentColor" id="user" xmlns="http://www.w3.org/2000/svg">
    <path fill-rule="evenodd" d="M4 22a8 8 0 1 1 16 0H4zm8-9c-3.315 0-6-2.685-6-6s2.685-6 6-6 6 2.685 6 6-2.685 6-6 6z"/>
  </symbol>

  <symbol viewBox="0 0 24 24" fill="currentColor" id="user2" xmlns="http://www.w3.org/2000/svg">
    <path fill-rule="evenodd" d="M12 2C9.243 2 7 4.243 7 7s2.243 5 5 5 5-2.243 5-5S14.757 2 12 2zM12 10c-1.654 0-3-1.346-3-3s1.346-3 3-3 3 1.346 3 3S13.654 10 12 10zM21 21v-1c0-3.859-3.141-7-7-7h-4c-3.86 0-7 3.141-7 7v1h2v-1c0-2.757 2.243-5 5-5h4c2.757 0 5 2.243 5 5v1H21z"/>
  </symbol>

  <symbol viewBox="0 0 24 24" fill="currentColor" id="login" xmlns="http://www.w3.org/2000/svg">
    <path fill-rule="evenodd" d="M4 15h2v5h12V4H6v5H4V3a1 1 0 0 1 1-1h14a1 1 0 0 1 1 1v18a1 1 0 0 1-1 1H5a1 1 0 0 1-1-1v-6zm6-4V8l5 4-5 4v-3H2v-2h8z"/>
  </symbol>

  <symbol viewBox="0 0 24 24" fill="currentColor" id="menu" xmlns="http://www.w3.org/2000/svg">
    <path fill-rule="evenodd" d="M3 4h18v2H3V4zm0 7h18v2H3v-2zm0 7h18v2H3v-2z"/>
  </symbol>

  <symbol viewBox="0 0 24 24" fill="currentColor" id="close" xmlns="http://www.w3.org/2000/svg">
    <path fill-rule="evenodd" d="M12 10.586l4.95-4.95 1.414 1.414-4.95 4.95 4.95 4.95-1.414 1.414-4.95-4.95-4.95 4.95-1.414-1.414 4.95-4.95-4.95-4.95L7.05 5.636z"/>
  </symbol>

  <symbol viewBox="0 0 24 24" fill="currentColor" id="home" xmlns="http://www.w3.org/2000/svg">
    <path fill-rule="evenodd" d="M19 21H5a1 1 0 0 1-1-1v-9H1l10.327-9.388a1 1 0 0 1 1.346 0L23 11h-3v9a1 1 0 0 1-1 1zm-6-2h5V9.157l-6-5.454-6 5.454V19h5v-6h2v6z"/>
  </symbol>

  <symbol viewBox="0 0 24 24" fill="currentColor" id="external-link" xmlns="http://www.w3.org/2000/svg">
    <path fill-rule="evenodd" d="M10 6v2H5v11h11v-5h2v6a1 1 0 0 1-1 1H4a1 1 0 0 1-1-1V7a1 1 0 0 1 1-1h6zm11-3v8h-2V6.413l-7.793 7.794-1.414-1.414L17.585 5H13V3h8z"/>
  </symbol>

  <symbol viewBox="0 0 24 24" fill="currentColor" id="tablet" xmlns="http://www.w3.org/2000/svg">
    <path fill-rule="evenodd" d="M6 4v16h12V4H6zM5 2h14a1 1 0 0 1 1 1v18a1 1 0 0 1-1 1H5a1 1 0 0 1-1-1V3a1 1 0 0 1 1-1zm7 15a1 1 0 1 1 0 2 1 1 0 0 1 0-2z"/>
  </symbol>

  <symbol viewBox="0 0 24 24" fill="currentColor" id="smartphone" xmlns="http://www.w3.org/2000/svg">
    <path fill-rule="evenodd" d="M7 4v16h10V4H7zM6 2h12a1 1 0 0 1 1 1v18a1 1 0 0 1-1 1H6a1 1 0 0 1-1-1V3a1 1 0 0 1 1-1zm6 15a1 1 0 1 1 0 2 1 1 0 0 1 0-2z"/>
  </symbol>

  <symbol viewBox="0 0 24 24" fill="currentColor" id="facebook" xmlns="http://www.w3.org/2000/svg">
    <path fill-rule="evenodd" d="M0 0h24v24H0z"/><path d="M14 13.5h2.5l1-4H14v-2c0-1.03 0-2 2-2h1.5V2.14c-.326-.043-1.557-.14-2.857-.14C11.928 2 10 3.657 10 6.7v2.8H7v4h3V22h4v-8.5z"/>
  </symbol>

  <symbol viewBox="0 0 24 24" fill="currentColor" id="twitter" xmlns="http://www.w3.org/2000/svg">
    <path fill-rule="evenodd" d="M22.162 5.656a8.384 8.384 0 0 1-2.402.658A4.196 4.196 0 0 0 21.6 4c-.82.488-1.719.83-2.656 1.015a4.182 4.182 0 0 0-7.126 3.814 11.874 11.874 0 0 1-8.62-4.37 4.168 4.168 0 0 0-.566 2.103c0 1.45.738 2.731 1.86 3.481a4.168 4.168 0 0 1-1.894-.523v.052a4.185 4.185 0 0 0 3.355 4.101 4.21 4.21 0 0 1-1.89.072A4.185 4.185 0 0 0 7.97 16.65a8.394 8.394 0 0 1-6.191 1.732 11.83 11.83 0 0 0 6.41 1.88c7.693 0 11.9-6.373 11.9-11.9 0-.18-.005-.362-.013-.54a8.496 8.496 0 0 0 2.087-2.165z"/>
  </symbol>
  
  <symbol viewBox="0 0 24 24" fill="currentColor" id="rss" xmlns="http://www.w3.org/2000/svg">
    <path fill-rule="evenodd" d="M3 3c9.941 0 18 8.059 18 18h-3c0-8.284-6.716-15-15-15V3zm0 7c6.075 0 11 4.925 11 11h-3a8 8 0 0 0-8-8v-3zm0 7a4 4 0 0 1 4 4H3v-4z"/>
  </symbol>

  <symbol viewBox="0 0 24 24" fill="currentColor" id="mail" xmlns="http://www.w3.org/2000/svg">
    <path fill-rule="evenodd" d="M20,4H4C2.897,4,2,4.897,2,6v12c0,1.103,0.897,2,2,2h16c1.103,0,2-0.897,2-2V6C22,4.897,21.103,4,20,4z M20,6v0.511 l-8,6.223L4,6.512V6H20z M4,18V9.044l7.386,5.745C11.566,14.93,11.783,15,12,15s0.434-0.07,0.614-0.211L20,9.044L20.002,18H4z"/>
  </symbol>

  <symbol viewBox="0 0 24 24" fill="currentColor" id="check" xmlns="http://www.w3.org/2000/svg">
    <path fill-rule="evenodd" d="M10 15.172l9.192-9.193 1.415 1.414L10 18l-6.364-6.364 1.414-1.414z"/>
  </symbol>

  <symbol viewBox="0 0 24 24" fill="currentColor" id="support" xmlns="http://www.w3.org/2000/svg">
    <path fill-rule="evenodd" d="M12 2c5.523 0 10 4.477 10 10s-4.477 10-10 10S2 17.523 2 12 6.477 2 12 2zm0 15a4.987 4.987 0 0 1-1.828-.345l-2.236 2.237A7.963 7.963 0 0 0 12 20a7.963 7.963 0 0 0 4.064-1.108l-2.236-2.237A4.987 4.987 0 0 1 12 17zm-8-5c0 1.484.404 2.873 1.108 4.064l2.237-2.236A4.987 4.987 0 0 1 7 12c0-.645.122-1.261.345-1.828L5.108 7.936A7.963 7.963 0 0 0 4 12zm14.892-4.064l-2.237 2.236c.223.567.345 1.183.345 1.828s-.122 1.261-.345 1.828l2.237 2.236A7.963 7.963 0 0 0 20 12a7.963 7.963 0 0 0-1.108-4.064zM12 9a3 3 0 1 0 0 6 3 3 0 0 0 0-6zm0-5a7.963 7.963 0 0 0-4.064 1.108l2.236 2.237A4.987 4.987 0 0 1 12 7c.645 0 1.261.122 1.828.345l2.236-2.237A7.963 7.963 0 0 0 12 4z"/>
  </symbol>

  <symbol viewBox="0 0 24 24" fill="currentColor" id="help" xmlns="http://www.w3.org/2000/svg">
    <path fill-rule="evenodd" d="M12 22C6.477 22 2 17.523 2 12S6.477 2 12 2s10 4.477 10 10-4.477 10-10 10zm0-2a8 8 0 1 0 0-16 8 8 0 0 0 0 16zm-1-5h2v2h-2v-2zm2-1.645V14h-2v-1.5a1 1 0 0 1 1-1 1.5 1.5 0 1 0-1.471-1.794l-1.962-.393A3.501 3.501 0 1 1 13 13.355z"/>
  </symbol>
</svg>
